<?xml version="1.0" standalone="no"?>
<!DOCTYPE svg PUBLIC "-//W3C//DTD SVG 20010904//EN"
 "http://www.w3.org/TR/2001/REC-SVG-20010904/DTD/svg10.dtd">
<svg version="1.0" xmlns="http://www.w3.org/2000/svg"
 width="952.720397pt" height="302.193490pt" viewBox="0 0 952.720397 302.193490"
 preserveAspectRatio="xMidYMid meet">
<metadata>
Created by potrace 1.12, written by Peter Selinger 2001-2015
</metadata>
<g transform="translate(-36.142563,324.693490) scale(0.100000,-0.100000)"
fill="#000000" stroke="none">
<path d="M7687 3234 c-424 -78 -739 -397 -812 -823 -14 -77 -15 -184 -12 -718
3 -605 4 -631 24 -708 103 -382 380 -653 758 -741 74 -18 131 -19 730 -19 598
0 656 1 730 19 373 86 657 364 758 741 20 77 21 105 24 708 4 673 1 723 -48
870 -109 327 -370 568 -714 660 -77 20 -102 21 -720 23 -519 2 -655 0 -718
-12z m751 -624 c18 -11 41 -34 52 -52 71 -117 -71 -259 -188 -188 -42 26 -72
76 -72 120 0 71 69 140 140 140 19 0 50 -9 68 -20z m-393 -269 l0 -100 -71
-50 c-221 -155 -336 -421 -292 -676 20 -117 49 -189 109 -280 152 -227 424
-348 684 -303 105 18 181 46 250 89 l50 32 -78 71 c-42 39 -77 74 -77 77 0 4
18 14 40 23 52 21 128 20 202 0 58 -17 59 -16 82 5 13 12 37 52 54 89 147 319
52 674 -233 874 l-70 49 0 98 0 98 43 -18 c181 -78 362 -265 441 -458 52 -125
65 -194 65 -341 0 -180 -34 -310 -120 -452 l-35 -57 48 -44 c26 -24 73 -66
105 -93 31 -27 55 -53 54 -58 -1 -4 -24 -17 -51 -28 -69 -27 -176 -20 -249 16
-29 14 -58 26 -64 26 -6 0 -43 -21 -82 -46 -81 -52 -176 -93 -276 -120 -96
-25 -312 -25 -408 0 -333 89 -567 324 -652 656 -14 54 -19 110 -19 200 0 90 5
146 19 200 68 265 229 468 466 587 36 18 65 33 65 33 0 0 0 -45 0 -99z m302
-213 c75 -35 131 -116 158 -230 12 -50 15 -144 15 -451 l0 -389 -32 7 c-111
24 -189 115 -223 257 -12 50 -15 143 -15 444 0 209 3 384 7 387 8 9 35 1 90
-25z"/>
<path d="M500 2141 c-65 -23 -114 -72 -130 -130 -7 -28 -10 -167 -8 -424 l3
-382 25 -45 c46 -83 181 -122 303 -86 74 22 111 55 137 123 20 55 21 71 18
433 l-3 377 -30 49 c-56 91 -193 128 -315 85z m221 -39 c31 -15 53 -35 70 -65
l24 -42 0 -380 0 -380 -25 -50 c-35 -70 -78 -90 -190 -90 -117 1 -166 29 -196
112 -18 52 -20 735 -2 796 16 52 65 102 115 115 59 17 151 9 204 -16z"/>
<path d="M3345 2148 c-48 -17 -93 -56 -118 -101 -22 -41 -22 -50 -25 -421 -3
-423 -1 -445 63 -507 81 -79 227 -79 306 0 55 55 69 114 69 298 l0 153 -95 0
c-78 0 -95 -3 -95 -15 0 -12 16 -15 80 -15 l80 0 0 -144 c0 -147 -7 -189 -43
-240 -42 -61 -153 -83 -232 -47 -101 46 -105 67 -105 501 0 370 2 395 43 454
40 56 140 82 211 52 59 -24 116 -115 116 -185 0 -13 6 -21 16 -21 42 0 -18
166 -74 207 -56 41 -134 53 -197 31z"/>
<path d="M6215 2148 c-80 -28 -124 -91 -132 -190 -7 -70 10 -135 48 -188 16
-22 88 -84 161 -139 175 -131 218 -195 218 -326 -1 -131 -100 -216 -238 -202
-95 10 -155 71 -168 171 -4 29 -12 46 -20 46 -31 0 0 -129 42 -180 36 -43 74
-60 148 -67 121 -11 228 55 256 159 25 92 -4 214 -70 298 -17 21 -85 79 -153
129 -143 106 -185 158 -194 242 -14 136 61 229 182 229 109 0 175 -70 175
-187 0 -23 5 -33 15 -33 37 0 8 145 -39 195 -48 50 -154 70 -231 43z"/>
<path d="M1060 1616 c0 -470 2 -536 15 -536 13 0 15 32 15 230 l0 230 98 0
c162 0 217 27 270 130 81 161 36 384 -93 450 -44 22 -64 25 -177 29 l-128 3 0
-536z m253 493 c53 -14 100 -60 128 -121 19 -43 24 -70 24 -143 0 -82 -3 -97
-33 -157 -48 -98 -75 -112 -224 -117 l-118 -3 0 276 0 276 93 0 c50 0 109 -5
130 -11z"/>
<path d="M1780 1615 l0 -535 205 0 c176 0 205 2 205 15 0 13 -28 15 -190 15
l-190 0 0 210 0 210 150 0 c127 0 150 2 150 15 0 13 -23 15 -150 15 l-150 0 0
280 0 280 190 0 c162 0 190 2 190 15 0 13 -29 15 -205 15 l-205 0 0 -535z"/>
<path d="M2460 1616 c0 -468 2 -536 15 -536 13 0 15 63 17 485 l3 485 214
-485 c128 -289 220 -485 228 -485 11 0 13 97 13 535 0 467 -2 535 -15 535 -13
0 -15 -63 -17 -485 l-3 -485 -216 482 c-119 265 -221 484 -228 486 -8 3 -11
-135 -11 -532z"/>
<path d="M3920 1615 l0 -535 205 0 c176 0 205 2 205 15 0 13 -28 15 -190 15
l-190 0 0 210 0 210 150 0 c127 0 150 2 150 15 0 13 -23 15 -150 15 l-150 0 0
280 0 280 190 0 c162 0 190 2 190 15 0 13 -29 15 -205 15 l-205 0 0 -535z"/>
<path d="M4600 1616 c0 -468 2 -536 15 -536 13 0 15 63 17 485 l3 485 214
-485 c128 -289 220 -485 228 -485 11 0 13 97 13 535 0 467 -2 535 -15 535 -13
0 -15 -63 -17 -485 l-3 -485 -216 482 c-119 265 -221 484 -228 486 -8 3 -11
-135 -11 -532z"/>
<path d="M5382 1688 l3 -463 24 -48 c31 -64 82 -97 159 -104 110 -10 199 45
227 140 22 76 22 937 0 937 -13 0 -15 -57 -15 -454 0 -296 -4 -465 -11 -483
-52 -137 -269 -153 -336 -24 l-23 44 0 459 c0 405 -2 458 -15 458 -14 0 -15
-52 -13 -462z"/>
</g>
</svg>
