<?xml version="1.0" encoding="UTF-8" standalone="no"?>
<!-- Created with Inkscape (http://www.inkscape.org/) -->

<svg
   xmlns:dc="http://purl.org/dc/elements/1.1/"
   xmlns:cc="http://creativecommons.org/ns#"
   xmlns:rdf="http://www.w3.org/1999/02/22-rdf-syntax-ns#"
   xmlns:svg="http://www.w3.org/2000/svg"
   xmlns="http://www.w3.org/2000/svg"
   xmlns:sodipodi="http://sodipodi.sourceforge.net/DTD/sodipodi-0.dtd"
   xmlns:inkscape="http://www.inkscape.org/namespaces/inkscape"
   width="793.70081"
   height="220.51968"
   viewBox="0 0 210 58.345835"
   version="1.1"
   id="svg8"
   sodipodi:docname="Logo.svg"
   inkscape:version="0.92.3 (2405546, 2018-03-11)">
  <defs
     id="defs2" />
  <sodipodi:namedview
     id="base"
     pagecolor="#ffffff"
     bordercolor="#666666"
     borderopacity="1.0"
     inkscape:pageopacity="0.0"
     inkscape:pageshadow="2"
     inkscape:zoom="0.35"
     inkscape:cx="-64.285714"
     inkscape:cy="-11.428571"
     inkscape:document-units="mm"
     inkscape:current-layer="layer1"
     showgrid="false"
     inkscape:window-width="1600"
     inkscape:window-height="838"
     inkscape:window-x="-8"
     inkscape:window-y="-8"
     inkscape:window-maximized="1"
     units="px" />
  <metadata
     id="metadata5">
    <rdf:RDF>
      <cc:Work
         rdf:about="">
        <dc:format>image/svg+xml</dc:format>
        <dc:type
           rdf:resource="http://purl.org/dc/dcmitype/StillImage" />
        <dc:title></dc:title>
      </cc:Work>
    </rdf:RDF>
  </metadata>
  <g
     inkscape:label="Calque 1"
     inkscape:groupmode="layer"
     id="layer1"
     transform="translate(0,-238.65416)">
    <path
       style="fill:#f2f2f2;stroke-width:0.18512706"
       d="m 151.84225,296.40346 c -7.92271,-1.05978 -14.16423,-6.70024 -15.94854,-14.41267 -0.31474,-1.36038 -0.34264,-2.46115 -0.34264,-13.51428 0,-11.05313 0.0279,-12.1539 0.34264,-13.51428 1.62723,-7.03348 7.06379,-12.47004 14.09727,-14.09727 1.36038,-0.31473 2.46115,-0.34264 13.51428,-0.34264 11.05312,0 12.15389,0.0279 13.51427,0.34264 6.89066,1.59418 12.2682,6.86418 14.01849,13.73814 0.4175,1.63962 0.42142,1.76868 0.42142,13.87341 0,12.10473 -0.004,12.23379 -0.42142,13.87341 -0.81705,3.20883 -2.6322,6.41379 -4.93888,8.72047 -2.40123,2.40124 -5.27191,4.03111 -8.70936,4.9449 -1.42901,0.37988 -1.89375,0.39491 -13.23658,0.42809 -6.46556,0.0189 -12.00549,0.001 -12.31095,-0.0399 z m 14.46185,-9.7935 c 2.00147,-0.34902 4.18991,-1.21744 5.9701,-2.36904 0.73262,-0.47392 1.40267,-0.86168 1.48901,-0.86168 0.0863,0 0.62607,0.21476 1.1994,0.47723 1.41974,0.64998 3.38009,0.78423 4.6345,0.31738 0.5013,-0.18656 0.93059,-0.42084 0.95399,-0.52062 0.0234,-0.0998 -0.8245,-0.95928 -1.88422,-1.91 l -1.92676,-1.72858 0.47899,-0.77064 c 3.20555,-5.15737 3.26247,-11.79925 0.14574,-17.00651 -1.57046,-2.62385 -4.57187,-5.31778 -7.16144,-6.42781 l -0.8214,-0.35209 0.0895,1.14077 c 0.0492,0.62742 0.0142,1.42743 -0.0778,1.77778 l -0.1673,0.63702 1.34246,0.89789 c 4.57175,3.05778 6.65447,8.52202 5.31105,13.93414 -0.37552,1.51285 -1.46223,3.73257 -1.9998,4.08479 -0.39944,0.26173 -0.53228,0.26169 -1.41489,-3.7e-4 -0.53573,-0.15915 -1.41545,-0.28931 -1.95492,-0.28931 -0.94201,0 -2.46936,0.45113 -2.46936,0.72938 0,0.0736 0.63555,0.70487 1.41233,1.40285 l 1.41234,1.26905 -0.44042,0.36341 c -1.09072,0.90001 -3.77371,1.82253 -6.00788,2.06574 -2.2382,0.24366 -5.4636,-0.513 -7.63376,-1.79082 -1.34126,-0.78976 -3.65547,-3.10397 -4.44523,-4.44524 -3.48346,-5.91604 -1.76267,-13.52391 3.91835,-17.32362 l 1.34246,-0.89789 -0.1673,-0.63702 c -0.092,-0.35035 -0.12704,-1.15036 -0.0778,-1.77778 l 0.0895,-1.14077 -0.8214,0.35209 c -1.51243,0.64831 -3.47151,2.05341 -4.87229,3.49452 -6.18496,6.36308 -6.14416,16.36285 0.0926,22.68475 3.84895,3.90152 9.05271,5.56428 14.46186,4.621 z m -0.15196,-13.36643 c -0.0553,-7.60021 -0.0634,-7.74689 -0.48776,-8.79951 -0.79604,-1.97483 -2.29281,-3.42173 -3.87155,-3.74256 l -0.60166,-0.12227 0.003,7.18839 c 0.002,5.69418 0.0597,7.4301 0.2769,8.35125 0.51673,2.19169 1.58443,3.69228 3.14387,4.41847 1.74314,0.81174 1.60135,1.48442 1.53746,-7.29377 z m -0.91673,-16.96302 c 0.62741,-0.62741 0.6765,-0.75666 0.6765,-1.7811 0,-1.03044 -0.0468,-1.15138 -0.69731,-1.80189 -0.65051,-0.65051 -0.77146,-0.69732 -1.80191,-0.69732 -1.03045,0 -1.15139,0.0468 -1.8019,0.69732 -0.64922,0.64921 -0.69731,0.77287 -0.69731,1.79282 0,0.96344 0.067,1.16627 0.55538,1.68229 0.73661,0.77825 1.12267,0.92786 2.19297,0.8498 0.74044,-0.054 1.01519,-0.18354 1.57358,-0.74192 z M 17.75907,280.7006 c -1.147047,-0.35819 -1.648874,-0.74332 -2.121686,-1.62827 -0.411083,-0.76942 -0.419936,-0.91644 -0.473426,-7.86115 -0.03757,-4.87978 0.01107,-7.32052 0.156639,-7.86119 0.854529,-3.17348 6.447828,-3.72581 8.227605,-0.81247 l 0.556361,0.91071 0.05634,6.96964 c 0.05426,6.71173 0.04188,7.00828 -0.334399,8.01398 -0.222224,0.59396 -0.629556,1.24531 -0.944475,1.51029 -1.112308,0.93595 -3.447474,1.28167 -5.122964,0.75846 z m 4.146934,-0.76611 c 0.523426,-0.25557 0.842748,-0.60076 1.180359,-1.27599 l 0.462821,-0.92564 v -7.03482 -7.03483 l -0.450615,-0.78678 c -1.091206,-1.90524 -4.773844,-2.30714 -6.384247,-0.69674 -1.003963,1.00397 -1.058665,1.50201 -0.996611,9.07373 0.05295,6.46086 0.07716,6.88538 0.426391,7.4783 0.455831,0.77387 1.143468,1.30219 1.966569,1.5109 0.977378,0.24784 2.991607,0.0843 3.795333,-0.30813 z m 48.238305,0.7881 c -0.901586,-0.32665 -1.827952,-1.32813 -2.163788,-2.33924 -0.253758,-0.76399 -0.287637,-1.87583 -0.240655,-7.89722 0.05347,-6.8521 0.06392,-7.02532 0.469517,-7.78411 1.127363,-2.1091 3.873247,-2.72249 5.815682,-1.29914 1.048028,0.76796 2.155491,3.83391 1.384862,3.83391 -0.185774,0 -0.302855,-0.15273 -0.302855,-0.39506 0,-1.28219 -1.059804,-2.96525 -2.15545,-3.42305 -1.300264,-0.54328 -3.164886,-0.0776 -3.897459,0.97334 -0.751518,1.07814 -0.79679,1.55563 -0.79679,8.40293 0,8.03175 0.0811,8.41871 1.943831,9.27408 1.455334,0.66829 3.508269,0.24766 4.294207,-0.87986 0.658523,-0.94472 0.796789,-1.71623 0.796789,-4.44596 v -2.65672 h -1.481016 c -1.193043,0 -1.481015,-0.054 -1.481015,-0.27769 0,-0.22735 0.318829,-0.27769 1.758708,-0.27769 h 1.758702 v 2.83587 c 0,3.405 -0.251338,4.49386 -1.27318,5.5157 -1.022844,1.02284 -2.928152,1.38407 -4.43009,0.83991 z m 40.369511,-0.14194 c -0.90038,-0.26002 -1.83884,-1.30593 -2.16884,-2.41714 -0.42225,-1.42191 -0.42923,-17.36977 -0.008,-17.36977 0.2428,0 0.27769,1.06638 0.27769,8.48673 v 8.48672 l 0.42464,0.81591 c 1.24399,2.39023 5.26795,2.10225 6.22858,-0.44575 0.12803,-0.33958 0.19649,-3.45161 0.19649,-8.93238 0,-7.35323 0.0349,-8.41123 0.27768,-8.41123 0.41118,0 0.41585,15.94389 0.005,17.32711 -0.61375,2.06672 -2.89016,3.13662 -5.23372,2.4598 z m 13.18912,0.0349 c -1.30251,-0.31434 -2.15275,-1.18434 -2.58722,-2.64736 -0.35007,-1.1788 -0.36042,-1.80889 -0.0297,-1.80889 0.15982,0 0.29543,0.31303 0.36939,0.85261 0.25453,1.85702 1.36507,2.98088 3.12356,3.16104 2.54651,0.26089 4.38705,-1.30364 4.39502,-3.73596 0.008,-2.41771 -0.78808,-3.61203 -4.02422,-6.03795 -2.61896,-1.96325 -3.36694,-2.79011 -3.74479,-4.13964 -0.4845,-1.73046 0.11642,-4.08083 1.24419,-4.86636 1.63201,-1.13677 4.15312,-1.02317 5.34525,0.24086 0.86535,0.91753 1.40336,3.6029 0.72185,3.6029 -0.18966,0 -0.27802,-0.19073 -0.27873,-0.60166 -0.004,-2.16787 -1.21971,-3.47113 -3.23869,-3.47113 -2.24789,0 -3.62035,1.72965 -3.36326,4.23857 0.15862,1.54802 0.93193,2.51327 3.59344,4.4853 1.24662,0.92369 2.51881,1.99789 2.82709,2.38712 1.22721,1.54948 1.76261,3.8194 1.30222,5.52094 -0.29545,1.09191 -1.46565,2.32997 -2.55218,2.70019 -0.88745,0.30239 -2.14458,0.35076 -3.10319,0.11942 z m -95.618146,-9.9361 v -9.9229 l 2.365804,0.0649 c 2.098029,0.0575 2.46996,0.11828 3.286008,0.53672 2.374336,1.21748 3.222737,5.3373 1.712313,8.31498 -0.974329,1.9208 -1.990294,2.4106 -5.003752,2.41233 l -1.804988,10e-4 v 4.25793 c 0,3.6614 -0.03889,4.25792 -0.277692,4.25792 -0.243383,0 -0.277693,-1.22596 -0.277693,-9.92289 z m 5.594108,0.33098 c 0.491489,-0.30547 0.861945,-0.7806 1.295888,-1.66207 0.551774,-1.12081 0.607389,-1.38789 0.604786,-2.90435 -0.0031,-1.95663 -0.47277,-3.26169 -1.496465,-4.1605 -0.820125,-0.72009 -1.667586,-0.93211 -3.730509,-0.93336 l -1.712423,-10e-4 v 5.1105 5.11049 l 2.175244,-0.066 c 1.882003,-0.0571 2.268018,-0.12362 2.863479,-0.49371 z m 7.735043,-0.31239 v -9.9043 h 3.795108 c 3.250009,0 3.795103,0.0399 3.795103,0.27769 0,0.23709 -0.514243,0.27769 -3.517416,0.27769 h -3.517416 v 5.18356 5.18356 h 2.776908 c 2.344944,0 2.776908,0.0432 2.776908,0.27768 0,0.2345 -0.431964,0.2777 -2.776908,0.2777 h -2.776908 v 3.88766 3.88768 h 3.517416 c 3.003173,0 3.517416,0.0406 3.517416,0.27768 0,0.23781 -0.545094,0.2777 -3.795103,0.2777 h -3.795108 z m 12.588642,-0.0154 c 0,-7.3451 0.0548,-9.90146 0.21112,-9.84935 0.116116,0.0387 2.011358,4.08523 4.211639,8.99229 l 4.000524,8.92191 0.04802,-8.97686 c 0.04177,-7.80906 0.08394,-8.97687 0.323972,-8.97687 0.241048,0 0.275929,1.25199 0.275929,9.9043 0,8.10442 -0.04461,9.9043 -0.24556,9.9043 -0.146117,0 -1.851703,-3.63688 -4.211639,-8.98065 l -3.966084,-8.98064 -0.04802,8.98064 c -0.04177,7.81242 -0.08394,8.98065 -0.323972,8.98065 -0.241053,0 -0.275929,-1.25375 -0.275929,-9.91973 z m 27.028552,0.0154 v -9.9043 h 3.795103 c 3.250014,0 3.795108,0.0399 3.795108,0.27769 0,0.23709 -0.514243,0.27769 -3.517416,0.27769 h -3.517416 v 5.18356 5.18356 h 2.776909 c 2.344943,0 2.776908,0.0432 2.776908,0.27768 0,0.2345 -0.431965,0.2777 -2.776908,0.2777 h -2.776909 v 3.88766 3.88768 h 3.517416 c 3.003173,0 3.517416,0.0406 3.517416,0.27768 0,0.23781 -0.545094,0.2777 -3.795108,0.2777 h -3.795103 z m 12.588642,-0.0154 c 0,-7.3451 0.0548,-9.90146 0.21112,-9.84935 0.116116,0.0387 2.011353,4.08523 4.211644,8.99229 l 4.000525,8.92191 0.048,-8.97686 c 0.0418,-7.80906 0.0839,-8.97687 0.32397,-8.97687 0.24105,0 0.27593,1.25199 0.27593,9.9043 0,8.10442 -0.0446,9.9043 -0.24556,9.9043 -0.14611,0 -1.8517,-3.63688 -4.211644,-8.98065 l -3.966083,-8.98064 -0.04807,8.98064 c -0.04177,7.81242 -0.08394,8.98065 -0.323972,8.98065 -0.241058,0 -0.275929,-1.25375 -0.275929,-9.91973 z"
       id="path3724"
       inkscape:connector-curvature="0" />
  </g>
</svg>
